G04 #@! TF.GenerationSoftware,KiCad,Pcbnew,(5.0.0-rc2-dev-707-g2ed24a4)*
G04 #@! TF.CreationDate,2018-05-18T15:55:42+01:00*
G04 #@! TF.ProjectId,pcie-probing-riser,706369652D70726F62696E672D726973,rev?*
G04 #@! TF.SameCoordinates,Original*
G04 #@! TF.FileFunction,Copper,L3,Inr,Plane*
G04 #@! TF.FilePolarity,Positive*
%FSLAX46Y46*%
G04 Gerber Fmt 4.6, Leading zero omitted, Abs format (unit mm)*
G04 Created by KiCad (PCBNEW (5.0.0-rc2-dev-707-g2ed24a4)) date Friday, 18 May 2018 at 15:55:42*
%MOMM*%
%LPD*%
G01*
G04 APERTURE LIST*
%ADD10C,0.800000*%
%ADD11C,0.254000*%
G04 APERTURE END LIST*
D10*
X31292800Y4927600D03*
X16604279Y6943452D03*
X18606022Y4832780D03*
X11125200Y6248400D03*
X14528800Y9601200D03*
X25620899Y10746550D03*
X23370877Y11174619D03*
X33200011Y13724969D03*
D11*
G36*
X35687000Y6210000D02*
X33569926Y6210000D01*
X33500000Y6223909D01*
X33430075Y6210000D01*
X33430074Y6210000D01*
X33222972Y6168805D01*
X32988119Y6011881D01*
X32831195Y5777028D01*
X32776091Y5500000D01*
X32790001Y5430069D01*
X32790000Y-1340560D01*
X13210000Y-1248202D01*
X13210000Y4069926D01*
X13196358Y4138509D01*
X13196358Y4138514D01*
X13120238Y4521196D01*
X13036271Y4723909D01*
X13014223Y4777138D01*
X12797451Y5101562D01*
X12668619Y5230393D01*
X12674545Y5431866D01*
X12666311Y5480730D01*
X12640004Y5522724D01*
X12599629Y5551453D01*
X12551031Y5562554D01*
X12133194Y5573847D01*
X12093368Y5590343D01*
X12021196Y5620238D01*
X11638513Y5696358D01*
X11361486Y5696358D01*
X10978804Y5620238D01*
X10944375Y5605977D01*
X10795000Y5610014D01*
X10795000Y9807074D01*
X13493800Y9807074D01*
X13493800Y9395326D01*
X13651369Y9014920D01*
X13942520Y8723769D01*
X14322926Y8566200D01*
X14734674Y8566200D01*
X15115080Y8723769D01*
X15406231Y9014920D01*
X15563800Y9395326D01*
X15563800Y9807074D01*
X15406231Y10187480D01*
X15115080Y10478631D01*
X14734674Y10636200D01*
X14322926Y10636200D01*
X13942520Y10478631D01*
X13651369Y10187480D01*
X13493800Y9807074D01*
X10795000Y9807074D01*
X10795000Y11380493D01*
X22335877Y11380493D01*
X22335877Y10968745D01*
X22493446Y10588339D01*
X22784597Y10297188D01*
X23165003Y10139619D01*
X23576751Y10139619D01*
X23957157Y10297188D01*
X24248308Y10588339D01*
X24399116Y10952424D01*
X24585899Y10952424D01*
X24585899Y10540676D01*
X24743468Y10160270D01*
X25034619Y9869119D01*
X25415025Y9711550D01*
X25826773Y9711550D01*
X26207179Y9869119D01*
X26498330Y10160270D01*
X26655899Y10540676D01*
X26655899Y10952424D01*
X26498330Y11332830D01*
X26207179Y11623981D01*
X25826773Y11781550D01*
X25415025Y11781550D01*
X25034619Y11623981D01*
X24743468Y11332830D01*
X24585899Y10952424D01*
X24399116Y10952424D01*
X24405877Y10968745D01*
X24405877Y11380493D01*
X24248308Y11760899D01*
X23957157Y12052050D01*
X23576751Y12209619D01*
X23165003Y12209619D01*
X22784597Y12052050D01*
X22493446Y11760899D01*
X22335877Y11380493D01*
X10795000Y11380493D01*
X10795000Y13930843D01*
X32165011Y13930843D01*
X32165011Y13519095D01*
X32322580Y13138689D01*
X32613731Y12847538D01*
X32994137Y12689969D01*
X33405885Y12689969D01*
X33786291Y12847538D01*
X34077442Y13138689D01*
X34235011Y13519095D01*
X34235011Y13930843D01*
X34077442Y14311249D01*
X33786291Y14602400D01*
X33405885Y14759969D01*
X32994137Y14759969D01*
X32613731Y14602400D01*
X32322580Y14311249D01*
X32165011Y13930843D01*
X10795000Y13930843D01*
X10795000Y31826200D01*
X35687000Y31826200D01*
X35687000Y6210000D01*
X35687000Y6210000D01*
G37*
X35687000Y6210000D02*
X33569926Y6210000D01*
X33500000Y6223909D01*
X33430075Y6210000D01*
X33430074Y6210000D01*
X33222972Y6168805D01*
X32988119Y6011881D01*
X32831195Y5777028D01*
X32776091Y5500000D01*
X32790001Y5430069D01*
X32790000Y-1340560D01*
X13210000Y-1248202D01*
X13210000Y4069926D01*
X13196358Y4138509D01*
X13196358Y4138514D01*
X13120238Y4521196D01*
X13036271Y4723909D01*
X13014223Y4777138D01*
X12797451Y5101562D01*
X12668619Y5230393D01*
X12674545Y5431866D01*
X12666311Y5480730D01*
X12640004Y5522724D01*
X12599629Y5551453D01*
X12551031Y5562554D01*
X12133194Y5573847D01*
X12093368Y5590343D01*
X12021196Y5620238D01*
X11638513Y5696358D01*
X11361486Y5696358D01*
X10978804Y5620238D01*
X10944375Y5605977D01*
X10795000Y5610014D01*
X10795000Y9807074D01*
X13493800Y9807074D01*
X13493800Y9395326D01*
X13651369Y9014920D01*
X13942520Y8723769D01*
X14322926Y8566200D01*
X14734674Y8566200D01*
X15115080Y8723769D01*
X15406231Y9014920D01*
X15563800Y9395326D01*
X15563800Y9807074D01*
X15406231Y10187480D01*
X15115080Y10478631D01*
X14734674Y10636200D01*
X14322926Y10636200D01*
X13942520Y10478631D01*
X13651369Y10187480D01*
X13493800Y9807074D01*
X10795000Y9807074D01*
X10795000Y11380493D01*
X22335877Y11380493D01*
X22335877Y10968745D01*
X22493446Y10588339D01*
X22784597Y10297188D01*
X23165003Y10139619D01*
X23576751Y10139619D01*
X23957157Y10297188D01*
X24248308Y10588339D01*
X24399116Y10952424D01*
X24585899Y10952424D01*
X24585899Y10540676D01*
X24743468Y10160270D01*
X25034619Y9869119D01*
X25415025Y9711550D01*
X25826773Y9711550D01*
X26207179Y9869119D01*
X26498330Y10160270D01*
X26655899Y10540676D01*
X26655899Y10952424D01*
X26498330Y11332830D01*
X26207179Y11623981D01*
X25826773Y11781550D01*
X25415025Y11781550D01*
X25034619Y11623981D01*
X24743468Y11332830D01*
X24585899Y10952424D01*
X24399116Y10952424D01*
X24405877Y10968745D01*
X24405877Y11380493D01*
X24248308Y11760899D01*
X23957157Y12052050D01*
X23576751Y12209619D01*
X23165003Y12209619D01*
X22784597Y12052050D01*
X22493446Y11760899D01*
X22335877Y11380493D01*
X10795000Y11380493D01*
X10795000Y13930843D01*
X32165011Y13930843D01*
X32165011Y13519095D01*
X32322580Y13138689D01*
X32613731Y12847538D01*
X32994137Y12689969D01*
X33405885Y12689969D01*
X33786291Y12847538D01*
X34077442Y13138689D01*
X34235011Y13519095D01*
X34235011Y13930843D01*
X34077442Y14311249D01*
X33786291Y14602400D01*
X33405885Y14759969D01*
X32994137Y14759969D01*
X32613731Y14602400D01*
X32322580Y14311249D01*
X32165011Y13930843D01*
X10795000Y13930843D01*
X10795000Y31826200D01*
X35687000Y31826200D01*
X35687000Y6210000D01*
M02*
