G04 #@! TF.GenerationSoftware,KiCad,Pcbnew,(5.0.0-rc2-dev-707-g2ed24a4)*
G04 #@! TF.CreationDate,2018-05-18T15:55:42+01:00*
G04 #@! TF.ProjectId,pcie-probing-riser,706369652D70726F62696E672D726973,rev?*
G04 #@! TF.SameCoordinates,Original*
G04 #@! TF.FileFunction,Copper,L2,Inr,Plane*
G04 #@! TF.FilePolarity,Positive*
%FSLAX46Y46*%
G04 Gerber Fmt 4.6, Leading zero omitted, Abs format (unit mm)*
G04 Created by KiCad (PCBNEW (5.0.0-rc2-dev-707-g2ed24a4)) date Friday, 18 May 2018 at 15:55:42*
%MOMM*%
%LPD*%
G01*
G04 APERTURE LIST*
%ADD10C,0.800000*%
%ADD11C,0.254000*%
G04 APERTURE END LIST*
D10*
X31292800Y4927600D03*
X16604279Y6943452D03*
X18606022Y4832780D03*
X11125200Y6248400D03*
X14528800Y9601200D03*
X25620899Y10746550D03*
X23370877Y11174619D03*
X33200011Y13724969D03*
D11*
G36*
X35585400Y6210000D02*
X33569926Y6210000D01*
X33500000Y6223909D01*
X33430075Y6210000D01*
X33430074Y6210000D01*
X33222972Y6168805D01*
X32988119Y6011881D01*
X32831195Y5777028D01*
X32776091Y5500000D01*
X32790001Y5430069D01*
X32790000Y-1341040D01*
X13210000Y-1248681D01*
X13210000Y4069926D01*
X13196358Y4138509D01*
X13196358Y4138514D01*
X13120238Y4521196D01*
X13036271Y4723909D01*
X13014223Y4777138D01*
X12839485Y5038654D01*
X17571022Y5038654D01*
X17571022Y4626906D01*
X17728591Y4246500D01*
X18019742Y3955349D01*
X18400148Y3797780D01*
X18811896Y3797780D01*
X19192302Y3955349D01*
X19483453Y4246500D01*
X19641022Y4626906D01*
X19641022Y5038654D01*
X19601747Y5133474D01*
X30257800Y5133474D01*
X30257800Y4721726D01*
X30415369Y4341320D01*
X30706520Y4050169D01*
X31086926Y3892600D01*
X31498674Y3892600D01*
X31879080Y4050169D01*
X32170231Y4341320D01*
X32327800Y4721726D01*
X32327800Y5133474D01*
X32170231Y5513880D01*
X31879080Y5805031D01*
X31498674Y5962600D01*
X31086926Y5962600D01*
X30706520Y5805031D01*
X30415369Y5513880D01*
X30257800Y5133474D01*
X19601747Y5133474D01*
X19483453Y5419060D01*
X19192302Y5710211D01*
X18811896Y5867780D01*
X18400148Y5867780D01*
X18019742Y5710211D01*
X17728591Y5419060D01*
X17571022Y5038654D01*
X12839485Y5038654D01*
X12797451Y5101562D01*
X12601562Y5297450D01*
X12601561Y5297451D01*
X12569619Y5318794D01*
X12572945Y5431866D01*
X12564711Y5480730D01*
X12538404Y5522724D01*
X12498029Y5551453D01*
X12449431Y5562554D01*
X12140286Y5570909D01*
X12093368Y5590343D01*
X12021196Y5620238D01*
X11970778Y5630267D01*
X12002631Y5662120D01*
X12160200Y6042526D01*
X12160200Y6454274D01*
X12002631Y6834680D01*
X11711480Y7125831D01*
X11654758Y7149326D01*
X15569279Y7149326D01*
X15569279Y6737578D01*
X15726848Y6357172D01*
X16017999Y6066021D01*
X16398405Y5908452D01*
X16810153Y5908452D01*
X17190559Y6066021D01*
X17481710Y6357172D01*
X17639279Y6737578D01*
X17639279Y7149326D01*
X17481710Y7529732D01*
X17190559Y7820883D01*
X16810153Y7978452D01*
X16398405Y7978452D01*
X16017999Y7820883D01*
X15726848Y7529732D01*
X15569279Y7149326D01*
X11654758Y7149326D01*
X11331074Y7283400D01*
X10919326Y7283400D01*
X10693400Y7189819D01*
X10693400Y31826200D01*
X35585400Y31826200D01*
X35585400Y6210000D01*
X35585400Y6210000D01*
G37*
X35585400Y6210000D02*
X33569926Y6210000D01*
X33500000Y6223909D01*
X33430075Y6210000D01*
X33430074Y6210000D01*
X33222972Y6168805D01*
X32988119Y6011881D01*
X32831195Y5777028D01*
X32776091Y5500000D01*
X32790001Y5430069D01*
X32790000Y-1341040D01*
X13210000Y-1248681D01*
X13210000Y4069926D01*
X13196358Y4138509D01*
X13196358Y4138514D01*
X13120238Y4521196D01*
X13036271Y4723909D01*
X13014223Y4777138D01*
X12839485Y5038654D01*
X17571022Y5038654D01*
X17571022Y4626906D01*
X17728591Y4246500D01*
X18019742Y3955349D01*
X18400148Y3797780D01*
X18811896Y3797780D01*
X19192302Y3955349D01*
X19483453Y4246500D01*
X19641022Y4626906D01*
X19641022Y5038654D01*
X19601747Y5133474D01*
X30257800Y5133474D01*
X30257800Y4721726D01*
X30415369Y4341320D01*
X30706520Y4050169D01*
X31086926Y3892600D01*
X31498674Y3892600D01*
X31879080Y4050169D01*
X32170231Y4341320D01*
X32327800Y4721726D01*
X32327800Y5133474D01*
X32170231Y5513880D01*
X31879080Y5805031D01*
X31498674Y5962600D01*
X31086926Y5962600D01*
X30706520Y5805031D01*
X30415369Y5513880D01*
X30257800Y5133474D01*
X19601747Y5133474D01*
X19483453Y5419060D01*
X19192302Y5710211D01*
X18811896Y5867780D01*
X18400148Y5867780D01*
X18019742Y5710211D01*
X17728591Y5419060D01*
X17571022Y5038654D01*
X12839485Y5038654D01*
X12797451Y5101562D01*
X12601562Y5297450D01*
X12601561Y5297451D01*
X12569619Y5318794D01*
X12572945Y5431866D01*
X12564711Y5480730D01*
X12538404Y5522724D01*
X12498029Y5551453D01*
X12449431Y5562554D01*
X12140286Y5570909D01*
X12093368Y5590343D01*
X12021196Y5620238D01*
X11970778Y5630267D01*
X12002631Y5662120D01*
X12160200Y6042526D01*
X12160200Y6454274D01*
X12002631Y6834680D01*
X11711480Y7125831D01*
X11654758Y7149326D01*
X15569279Y7149326D01*
X15569279Y6737578D01*
X15726848Y6357172D01*
X16017999Y6066021D01*
X16398405Y5908452D01*
X16810153Y5908452D01*
X17190559Y6066021D01*
X17481710Y6357172D01*
X17639279Y6737578D01*
X17639279Y7149326D01*
X17481710Y7529732D01*
X17190559Y7820883D01*
X16810153Y7978452D01*
X16398405Y7978452D01*
X16017999Y7820883D01*
X15726848Y7529732D01*
X15569279Y7149326D01*
X11654758Y7149326D01*
X11331074Y7283400D01*
X10919326Y7283400D01*
X10693400Y7189819D01*
X10693400Y31826200D01*
X35585400Y31826200D01*
X35585400Y6210000D01*
M02*
