G04 #@! TF.GenerationSoftware,KiCad,Pcbnew,(5.0.0-rc2-dev-707-g2ed24a4)*
G04 #@! TF.CreationDate,2018-05-18T15:55:42+01:00*
G04 #@! TF.ProjectId,pcie-probing-riser,706369652D70726F62696E672D726973,rev?*
G04 #@! TF.SameCoordinates,Original*
G04 #@! TF.FileFunction,Soldermask,Bot*
G04 #@! TF.FilePolarity,Negative*
%FSLAX46Y46*%
G04 Gerber Fmt 4.6, Leading zero omitted, Abs format (unit mm)*
G04 Created by KiCad (PCBNEW (5.0.0-rc2-dev-707-g2ed24a4)) date Friday, 18 May 2018 at 15:55:42*
%MOMM*%
%LPD*%
G01*
G04 APERTURE LIST*
%ADD10C,1.050000*%
%ADD11R,1.050000X5.000000*%
%ADD12R,1.050000X4.000000*%
%ADD13R,1.400000X1.220000*%
%ADD14R,0.975000X1.050000*%
G04 APERTURE END LIST*
D10*
X32975001Y-2825001D03*
D11*
X32975001Y-525001D03*
D10*
X31975001Y-2825001D03*
D11*
X31975001Y-525001D03*
D10*
X30975001Y-2825001D03*
D11*
X30975001Y-525001D03*
D10*
X29975001Y-2825001D03*
D11*
X29975001Y-525001D03*
D10*
X28975001Y-2825001D03*
D11*
X28975001Y-525001D03*
D10*
X27975001Y-2825001D03*
D11*
X27975001Y-525001D03*
D10*
X26975001Y-2825001D03*
D11*
X26975001Y-525001D03*
D10*
X25975001Y-2825001D03*
D11*
X25975001Y-525001D03*
D10*
X24975001Y-2825001D03*
D11*
X24975001Y-525001D03*
D10*
X23975001Y-2825001D03*
D11*
X23975001Y-525001D03*
D10*
X22975001Y-2825001D03*
D11*
X22975001Y-525001D03*
D10*
X21975001Y-2825001D03*
D11*
X21975001Y-525001D03*
D10*
X20975001Y-2825001D03*
D11*
X20975001Y-525001D03*
D10*
X19975001Y-2825001D03*
D11*
X19975001Y-525001D03*
D10*
X18975001Y-2825001D03*
D11*
X18975001Y-525001D03*
D10*
X17975001Y-2825001D03*
D11*
X17975001Y-525001D03*
D10*
X16975001Y-2825001D03*
D11*
X16975001Y-525001D03*
D10*
X15975001Y-2825001D03*
D11*
X15975001Y-525001D03*
D10*
X14975001Y-2825001D03*
D11*
X14975001Y-525001D03*
D10*
X13975001Y-2825001D03*
D11*
X13975001Y-525001D03*
D10*
X12975001Y-2825001D03*
D11*
X12975001Y-525001D03*
D10*
X9975001Y-2825001D03*
D11*
X9975001Y-525001D03*
D10*
X8975001Y-2825001D03*
D11*
X8975001Y-525001D03*
D10*
X7975001Y-2825001D03*
D11*
X7975001Y-525001D03*
D10*
X6975001Y-2825001D03*
D11*
X6975001Y-525001D03*
D10*
X5975001Y-2825001D03*
D11*
X5975001Y-525001D03*
D10*
X4975001Y-2825001D03*
D11*
X4975001Y-525001D03*
D10*
X3975001Y-2825001D03*
D11*
X3975001Y-525001D03*
D10*
X2975001Y-2825001D03*
D11*
X2975001Y-525001D03*
D10*
X1975001Y-2825001D03*
D11*
X1975001Y-525001D03*
D10*
X975001Y-2825001D03*
D11*
X975001Y-525001D03*
D12*
X-24999Y-25001D03*
D13*
X0Y8200000D03*
X0Y9800000D03*
X1000000Y12200000D03*
X1000000Y13800000D03*
X1950000Y8200000D03*
X1950000Y9800000D03*
X3000000Y12200000D03*
X3000000Y13800000D03*
X4000000Y8200000D03*
X4000000Y9800000D03*
X5000000Y12200000D03*
X5000000Y13800000D03*
X6000000Y8200000D03*
X6000000Y9800000D03*
X7000000Y12200000D03*
X7000000Y13800000D03*
X8000000Y8200000D03*
X8000000Y9800000D03*
X9000000Y12200000D03*
X9000000Y13800000D03*
X10000000Y8200000D03*
X10000000Y9800000D03*
X12000000Y8200000D03*
X12000000Y9800000D03*
X12500000Y12200000D03*
X12500000Y13800000D03*
X14250000Y12200000D03*
X14250000Y13800000D03*
X16000000Y8200000D03*
X16000000Y9800000D03*
X16500000Y15200000D03*
X16500000Y16800000D03*
X18500000Y15200000D03*
X18500000Y16800000D03*
X19000000Y8200000D03*
X19000000Y9800000D03*
X20000000Y18700000D03*
X20000000Y20300000D03*
X21000000Y8200000D03*
X21000000Y9800000D03*
X21717000Y12200000D03*
X21717000Y13800000D03*
X23368000Y12192000D03*
X23368000Y13792000D03*
X23500000Y8200000D03*
X23500000Y9800000D03*
X25000000Y8200000D03*
X25000000Y9800000D03*
X25654000Y15200000D03*
X25654000Y16800000D03*
X27305000Y15200000D03*
X27305000Y16800000D03*
X28000000Y8200000D03*
X28000000Y9800000D03*
X29500000Y8200000D03*
X29500000Y9800000D03*
X29500000Y12200000D03*
X29500000Y13800000D03*
X31500000Y12200000D03*
X31500000Y13800000D03*
X32000000Y8200000D03*
X32000000Y9800000D03*
X33000000Y18200000D03*
X33000000Y19800000D03*
D14*
X12935100Y5943600D03*
X12160100Y5943600D03*
X16745100Y5892800D03*
X15970100Y5892800D03*
X18980300Y5943600D03*
X18205300Y5943600D03*
X31966200Y5943600D03*
X31191200Y5943600D03*
D12*
X-24999Y29924999D03*
D11*
X975001Y29424999D03*
D10*
X975001Y27124999D03*
D11*
X1975001Y29424999D03*
D10*
X1975001Y27124999D03*
D11*
X2975001Y29424999D03*
D10*
X2975001Y27124999D03*
D11*
X3975001Y29424999D03*
D10*
X3975001Y27124999D03*
D11*
X4975001Y29424999D03*
D10*
X4975001Y27124999D03*
D11*
X5975001Y29424999D03*
D10*
X5975001Y27124999D03*
D11*
X6975001Y29424999D03*
D10*
X6975001Y27124999D03*
D11*
X7975001Y29424999D03*
D10*
X7975001Y27124999D03*
D11*
X8975001Y29424999D03*
D10*
X8975001Y27124999D03*
D11*
X9975001Y29424999D03*
D10*
X9975001Y27124999D03*
D11*
X12975001Y29424999D03*
D10*
X12975001Y27124999D03*
D11*
X13975001Y29424999D03*
D10*
X13975001Y27124999D03*
D11*
X14975001Y29424999D03*
D10*
X14975001Y27124999D03*
D11*
X15975001Y29424999D03*
D10*
X15975001Y27124999D03*
D11*
X16975001Y29424999D03*
D10*
X16975001Y27124999D03*
D11*
X17975001Y29424999D03*
D10*
X17975001Y27124999D03*
D11*
X18975001Y29424999D03*
D10*
X18975001Y27124999D03*
D11*
X19975001Y29424999D03*
D10*
X19975001Y27124999D03*
D11*
X20975001Y29424999D03*
D10*
X20975001Y27124999D03*
D11*
X21975001Y29424999D03*
D10*
X21975001Y27124999D03*
D11*
X22975001Y29424999D03*
D10*
X22975001Y27124999D03*
D11*
X23975001Y29424999D03*
D10*
X23975001Y27124999D03*
D11*
X24975001Y29424999D03*
D10*
X24975001Y27124999D03*
D11*
X25975001Y29424999D03*
D10*
X25975001Y27124999D03*
D11*
X26975001Y29424999D03*
D10*
X26975001Y27124999D03*
D11*
X27975001Y29424999D03*
D10*
X27975001Y27124999D03*
D11*
X28975001Y29424999D03*
D10*
X28975001Y27124999D03*
D11*
X29975001Y29424999D03*
D10*
X29975001Y27124999D03*
D11*
X30975001Y29424999D03*
D10*
X30975001Y27124999D03*
D11*
X31975001Y29424999D03*
D10*
X31975001Y27124999D03*
D11*
X32975001Y29424999D03*
D10*
X32975001Y27124999D03*
M02*
