G04 #@! TF.GenerationSoftware,KiCad,Pcbnew,(5.0.0-rc2-dev-707-g2ed24a4)*
G04 #@! TF.CreationDate,2018-05-18T15:55:42+01:00*
G04 #@! TF.ProjectId,pcie-probing-riser,706369652D70726F62696E672D726973,rev?*
G04 #@! TF.SameCoordinates,Original*
G04 #@! TF.FileFunction,Paste,Top*
G04 #@! TF.FilePolarity,Positive*
%FSLAX46Y46*%
G04 Gerber Fmt 4.6, Leading zero omitted, Abs format (unit mm)*
G04 Created by KiCad (PCBNEW (5.0.0-rc2-dev-707-g2ed24a4)) date Friday, 18 May 2018 at 15:55:42*
%MOMM*%
%LPD*%
G01*
G04 APERTURE LIST*
%ADD10R,1.000000X0.820000*%
%ADD11C,0.575000*%
%ADD12C,0.100000*%
%ADD13R,0.650000X0.575000*%
G04 APERTURE END LIST*
D10*
X0Y8200000D03*
X0Y9800000D03*
X1000000Y12200000D03*
X1000000Y13800000D03*
X2000000Y8200000D03*
X2000000Y9800000D03*
X3000000Y12200000D03*
X3000000Y13800000D03*
X4000000Y8200000D03*
X4000000Y9800000D03*
X5000000Y12200000D03*
X5000000Y13800000D03*
X6000000Y8200000D03*
X6000000Y9800000D03*
X7000000Y12200000D03*
X7000000Y13800000D03*
X8000000Y8200000D03*
X8000000Y9800000D03*
X9000000Y12200000D03*
X9000000Y13800000D03*
X10000000Y8200000D03*
X10000000Y9800000D03*
X11000000Y15900000D03*
X11000000Y17500000D03*
X12000000Y8200000D03*
X12000000Y9800000D03*
X14605000Y12200000D03*
X14605000Y13800000D03*
X16383000Y12200000D03*
X16383000Y13800000D03*
X16750000Y8200000D03*
X16750000Y9800000D03*
X18500000Y18750000D03*
X18500000Y20350000D03*
X19000000Y8200000D03*
X19000000Y9800000D03*
X19558000Y12250000D03*
X19558000Y13850000D03*
X21336000Y12200000D03*
X21336000Y13800000D03*
X21750000Y8250000D03*
X21750000Y9850000D03*
X23317200Y12192000D03*
X23317200Y13792000D03*
X23495000Y15202000D03*
X23495000Y16802000D03*
X25400000Y15200000D03*
X25400000Y16800000D03*
X25501600Y12204800D03*
X25501600Y13804800D03*
X27178000Y8250000D03*
X27178000Y9850000D03*
X27500000Y12200000D03*
X27500000Y13800000D03*
X29250000Y12200000D03*
X29250000Y13800000D03*
X30000000Y8250000D03*
X30000000Y9850000D03*
X31000000Y18200000D03*
X31000000Y19800000D03*
X33000000Y18200000D03*
X33000000Y19800000D03*
X33000000Y8200000D03*
X33000000Y9800000D03*
D11*
X14142404Y8503604D03*
D12*
G36*
X14168921Y8070501D02*
X13709301Y8530121D01*
X14115887Y8936707D01*
X14575507Y8477087D01*
X14168921Y8070501D01*
X14168921Y8070501D01*
G37*
D11*
X13594396Y7955596D03*
D12*
G36*
X13620913Y7522493D02*
X13161293Y7982113D01*
X13567879Y8388699D01*
X14027499Y7929079D01*
X13620913Y7522493D01*
X13620913Y7522493D01*
G37*
D13*
X23571200Y9683900D03*
X23571200Y8908900D03*
X25908000Y8908900D03*
X25908000Y9683900D03*
X33172400Y12020700D03*
X33172400Y11245700D03*
M02*
