G04 #@! TF.GenerationSoftware,KiCad,Pcbnew,(5.0.0-rc2-dev-707-g2ed24a4)*
G04 #@! TF.CreationDate,2018-05-18T15:55:42+01:00*
G04 #@! TF.ProjectId,pcie-probing-riser,706369652D70726F62696E672D726973,rev?*
G04 #@! TF.SameCoordinates,Original*
G04 #@! TF.FileFunction,Paste,Bot*
G04 #@! TF.FilePolarity,Positive*
%FSLAX46Y46*%
G04 Gerber Fmt 4.6, Leading zero omitted, Abs format (unit mm)*
G04 Created by KiCad (PCBNEW (5.0.0-rc2-dev-707-g2ed24a4)) date Friday, 18 May 2018 at 15:55:42*
%MOMM*%
%LPD*%
G01*
G04 APERTURE LIST*
%ADD10R,1.000000X0.820000*%
%ADD11R,0.575000X0.650000*%
G04 APERTURE END LIST*
D10*
X0Y8200000D03*
X0Y9800000D03*
X1000000Y12200000D03*
X1000000Y13800000D03*
X1950000Y8200000D03*
X1950000Y9800000D03*
X3000000Y12200000D03*
X3000000Y13800000D03*
X4000000Y8200000D03*
X4000000Y9800000D03*
X5000000Y12200000D03*
X5000000Y13800000D03*
X6000000Y8200000D03*
X6000000Y9800000D03*
X7000000Y12200000D03*
X7000000Y13800000D03*
X8000000Y8200000D03*
X8000000Y9800000D03*
X9000000Y12200000D03*
X9000000Y13800000D03*
X10000000Y8200000D03*
X10000000Y9800000D03*
X12000000Y8200000D03*
X12000000Y9800000D03*
X12500000Y12200000D03*
X12500000Y13800000D03*
X14250000Y12200000D03*
X14250000Y13800000D03*
X16000000Y8200000D03*
X16000000Y9800000D03*
X16500000Y15200000D03*
X16500000Y16800000D03*
X18500000Y15200000D03*
X18500000Y16800000D03*
X19000000Y8200000D03*
X19000000Y9800000D03*
X20000000Y18700000D03*
X20000000Y20300000D03*
X21000000Y8200000D03*
X21000000Y9800000D03*
X21717000Y12200000D03*
X21717000Y13800000D03*
X23368000Y12192000D03*
X23368000Y13792000D03*
X23500000Y8200000D03*
X23500000Y9800000D03*
X25000000Y8200000D03*
X25000000Y9800000D03*
X25654000Y15200000D03*
X25654000Y16800000D03*
X27305000Y15200000D03*
X27305000Y16800000D03*
X28000000Y8200000D03*
X28000000Y9800000D03*
X29500000Y8200000D03*
X29500000Y9800000D03*
X29500000Y12200000D03*
X29500000Y13800000D03*
X31500000Y12200000D03*
X31500000Y13800000D03*
X32000000Y8200000D03*
X32000000Y9800000D03*
X33000000Y18200000D03*
X33000000Y19800000D03*
D11*
X12935100Y5943600D03*
X12160100Y5943600D03*
X16745100Y5892800D03*
X15970100Y5892800D03*
X18980300Y5943600D03*
X18205300Y5943600D03*
X31966200Y5943600D03*
X31191200Y5943600D03*
M02*
