G04 #@! TF.GenerationSoftware,KiCad,Pcbnew,(5.0.0-rc2-dev-707-g2ed24a4)*
G04 #@! TF.CreationDate,2018-05-18T15:55:42+01:00*
G04 #@! TF.ProjectId,pcie-probing-riser,706369652D70726F62696E672D726973,rev?*
G04 #@! TF.SameCoordinates,Original*
G04 #@! TF.FileFunction,Legend,Top*
G04 #@! TF.FilePolarity,Positive*
%FSLAX46Y46*%
G04 Gerber Fmt 4.6, Leading zero omitted, Abs format (unit mm)*
G04 Created by KiCad (PCBNEW (5.0.0-rc2-dev-707-g2ed24a4)) date Friday, 18 May 2018 at 15:55:42*
%MOMM*%
%LPD*%
G01*
G04 APERTURE LIST*
%ADD10C,0.120000*%
%ADD11C,0.150000*%
G04 APERTURE END LIST*
D10*
X33675001Y1974999D02*
X33675001Y-3825001D01*
X12375001Y1974999D02*
X12375001Y-3825001D01*
X12375001Y-3825001D02*
X33675001Y-3825001D01*
X33675001Y1974999D02*
X12375001Y1974999D01*
X-724999Y-3825001D02*
X-724999Y1974999D01*
X10575001Y-3825001D02*
X-724999Y-3825001D01*
X10575001Y1974999D02*
X10575001Y-3825001D01*
X-724999Y1974999D02*
X10575001Y1974999D01*
X12375001Y5174999D02*
X12375001Y1974999D01*
X10575001Y5174999D02*
X12375001Y5174999D01*
X10575001Y1974999D02*
X10575001Y5174999D01*
X10575001Y31924999D02*
X10575001Y35124999D01*
X10575001Y35124999D02*
X12375001Y35124999D01*
X12375001Y35124999D02*
X12375001Y31924999D01*
X-724999Y31924999D02*
X10575001Y31924999D01*
X10575001Y31924999D02*
X10575001Y26124999D01*
X10575001Y26124999D02*
X-724999Y26124999D01*
X-724999Y26124999D02*
X-724999Y31924999D01*
X33675001Y31924999D02*
X12375001Y31924999D01*
X12375001Y26124999D02*
X33675001Y26124999D01*
X12375001Y31924999D02*
X12375001Y26124999D01*
X33675001Y31924999D02*
X33675001Y26124999D01*
D11*
X4238095Y6797619D02*
X4238095Y5988095D01*
X4285714Y5892857D01*
X4333333Y5845238D01*
X4428571Y5797619D01*
X4619047Y5797619D01*
X4714285Y5845238D01*
X4761904Y5892857D01*
X4809523Y5988095D01*
X4809523Y6797619D01*
X5809523Y5797619D02*
X5238095Y5797619D01*
X5523809Y5797619D02*
X5523809Y6797619D01*
X5428571Y6654761D01*
X5333333Y6559523D01*
X5238095Y6511904D01*
X452380Y15857142D02*
X-23809Y15523809D01*
X452380Y15285714D02*
X-547619Y15285714D01*
X-547619Y15666666D01*
X-500000Y15761904D01*
X-452380Y15809523D01*
X-357142Y15857142D01*
X-214285Y15857142D01*
X-119047Y15809523D01*
X-71428Y15761904D01*
X-23809Y15666666D01*
X-23809Y15285714D01*
X452380Y16809523D02*
X452380Y16238095D01*
X452380Y16523809D02*
X-547619Y16523809D01*
X-404761Y16428571D01*
X-309523Y16333333D01*
X-261904Y16238095D01*
X-452380Y17190476D02*
X-499999Y17238095D01*
X-547619Y17333333D01*
X-547619Y17571428D01*
X-499999Y17666666D01*
X-452380Y17714285D01*
X-357142Y17761904D01*
X-261904Y17761904D01*
X-119047Y17714285D01*
X452380Y17142857D01*
X452380Y17761904D01*
X1702380Y18857142D02*
X1226190Y18523809D01*
X1702380Y18285714D02*
X702380Y18285714D01*
X702380Y18666666D01*
X750000Y18761904D01*
X797619Y18809523D01*
X892857Y18857142D01*
X1035714Y18857142D01*
X1130952Y18809523D01*
X1178571Y18761904D01*
X1226190Y18666666D01*
X1226190Y18285714D01*
X1702380Y19809523D02*
X1702380Y19238095D01*
X1702380Y19523809D02*
X702380Y19523809D01*
X845238Y19428571D01*
X940476Y19333333D01*
X988095Y19238095D01*
X702380Y20142857D02*
X702380Y20761904D01*
X1083333Y20428571D01*
X1083333Y20571428D01*
X1130952Y20666666D01*
X1178571Y20714285D01*
X1273809Y20761904D01*
X1511904Y20761904D01*
X1607142Y20714285D01*
X1654761Y20666666D01*
X1702380Y20571428D01*
X1702380Y20285714D01*
X1654761Y20190476D01*
X1607142Y20142857D01*
X2452380Y15857142D02*
X1976190Y15523809D01*
X2452380Y15285714D02*
X1452380Y15285714D01*
X1452380Y15666666D01*
X1500000Y15761904D01*
X1547619Y15809523D01*
X1642857Y15857142D01*
X1785714Y15857142D01*
X1880952Y15809523D01*
X1928571Y15761904D01*
X1976190Y15666666D01*
X1976190Y15285714D01*
X2452380Y16809523D02*
X2452380Y16238095D01*
X2452380Y16523809D02*
X1452380Y16523809D01*
X1595238Y16428571D01*
X1690476Y16333333D01*
X1738095Y16238095D01*
X1785714Y17666666D02*
X2452380Y17666666D01*
X1404761Y17428571D02*
X2119047Y17190476D01*
X2119047Y17809523D01*
X3452380Y18857142D02*
X2976190Y18523809D01*
X3452380Y18285714D02*
X2452380Y18285714D01*
X2452380Y18666666D01*
X2500000Y18761904D01*
X2547619Y18809523D01*
X2642857Y18857142D01*
X2785714Y18857142D01*
X2880952Y18809523D01*
X2928571Y18761904D01*
X2976190Y18666666D01*
X2976190Y18285714D01*
X3452380Y19809523D02*
X3452380Y19238095D01*
X3452380Y19523809D02*
X2452380Y19523809D01*
X2595238Y19428571D01*
X2690476Y19333333D01*
X2738095Y19238095D01*
X2452380Y20714285D02*
X2452380Y20238095D01*
X2928571Y20190476D01*
X2880952Y20238095D01*
X2833333Y20333333D01*
X2833333Y20571428D01*
X2880952Y20666666D01*
X2928571Y20714285D01*
X3023809Y20761904D01*
X3261904Y20761904D01*
X3357142Y20714285D01*
X3404761Y20666666D01*
X3452380Y20571428D01*
X3452380Y20333333D01*
X3404761Y20238095D01*
X3357142Y20190476D01*
X4452380Y15857142D02*
X3976190Y15523809D01*
X4452380Y15285714D02*
X3452380Y15285714D01*
X3452380Y15666666D01*
X3500000Y15761904D01*
X3547619Y15809523D01*
X3642857Y15857142D01*
X3785714Y15857142D01*
X3880952Y15809523D01*
X3928571Y15761904D01*
X3976190Y15666666D01*
X3976190Y15285714D01*
X4452380Y16809523D02*
X4452380Y16238095D01*
X4452380Y16523809D02*
X3452380Y16523809D01*
X3595238Y16428571D01*
X3690476Y16333333D01*
X3738095Y16238095D01*
X3452380Y17666666D02*
X3452380Y17476190D01*
X3500000Y17380952D01*
X3547619Y17333333D01*
X3690476Y17238095D01*
X3880952Y17190476D01*
X4261904Y17190476D01*
X4357142Y17238095D01*
X4404761Y17285714D01*
X4452380Y17380952D01*
X4452380Y17571428D01*
X4404761Y17666666D01*
X4357142Y17714285D01*
X4261904Y17761904D01*
X4023809Y17761904D01*
X3928571Y17714285D01*
X3880952Y17666666D01*
X3833333Y17571428D01*
X3833333Y17380952D01*
X3880952Y17285714D01*
X3928571Y17238095D01*
X4023809Y17190476D01*
X5452380Y18857142D02*
X4976190Y18523809D01*
X5452380Y18285714D02*
X4452380Y18285714D01*
X4452380Y18666666D01*
X4500000Y18761904D01*
X4547619Y18809523D01*
X4642857Y18857142D01*
X4785714Y18857142D01*
X4880952Y18809523D01*
X4928571Y18761904D01*
X4976190Y18666666D01*
X4976190Y18285714D01*
X5452380Y19809523D02*
X5452380Y19238095D01*
X5452380Y19523809D02*
X4452380Y19523809D01*
X4595238Y19428571D01*
X4690476Y19333333D01*
X4738095Y19238095D01*
X4452380Y20142857D02*
X4452380Y20809523D01*
X5452380Y20380952D01*
X6452380Y15857142D02*
X5976190Y15523809D01*
X6452380Y15285714D02*
X5452380Y15285714D01*
X5452380Y15666666D01*
X5500000Y15761904D01*
X5547619Y15809523D01*
X5642857Y15857142D01*
X5785714Y15857142D01*
X5880952Y15809523D01*
X5928571Y15761904D01*
X5976190Y15666666D01*
X5976190Y15285714D01*
X6452380Y16809523D02*
X6452380Y16238095D01*
X6452380Y16523809D02*
X5452380Y16523809D01*
X5595238Y16428571D01*
X5690476Y16333333D01*
X5738095Y16238095D01*
X5880952Y17380952D02*
X5833333Y17285714D01*
X5785714Y17238095D01*
X5690476Y17190476D01*
X5642857Y17190476D01*
X5547619Y17238095D01*
X5500000Y17285714D01*
X5452380Y17380952D01*
X5452380Y17571428D01*
X5500000Y17666666D01*
X5547619Y17714285D01*
X5642857Y17761904D01*
X5690476Y17761904D01*
X5785714Y17714285D01*
X5833333Y17666666D01*
X5880952Y17571428D01*
X5880952Y17380952D01*
X5928571Y17285714D01*
X5976190Y17238095D01*
X6071428Y17190476D01*
X6261904Y17190476D01*
X6357142Y17238095D01*
X6404761Y17285714D01*
X6452380Y17380952D01*
X6452380Y17571428D01*
X6404761Y17666666D01*
X6357142Y17714285D01*
X6261904Y17761904D01*
X6071428Y17761904D01*
X5976190Y17714285D01*
X5928571Y17666666D01*
X5880952Y17571428D01*
X7452380Y18857142D02*
X6976190Y18523809D01*
X7452380Y18285714D02*
X6452380Y18285714D01*
X6452380Y18666666D01*
X6500000Y18761904D01*
X6547619Y18809523D01*
X6642857Y18857142D01*
X6785714Y18857142D01*
X6880952Y18809523D01*
X6928571Y18761904D01*
X6976190Y18666666D01*
X6976190Y18285714D01*
X7452380Y19809523D02*
X7452380Y19238095D01*
X7452380Y19523809D02*
X6452380Y19523809D01*
X6595238Y19428571D01*
X6690476Y19333333D01*
X6738095Y19238095D01*
X7452380Y20285714D02*
X7452380Y20476190D01*
X7404761Y20571428D01*
X7357142Y20619047D01*
X7214285Y20714285D01*
X7023809Y20761904D01*
X6642857Y20761904D01*
X6547619Y20714285D01*
X6500000Y20666666D01*
X6452380Y20571428D01*
X6452380Y20380952D01*
X6500000Y20285714D01*
X6547619Y20238095D01*
X6642857Y20190476D01*
X6880952Y20190476D01*
X6976190Y20238095D01*
X7023809Y20285714D01*
X7071428Y20380952D01*
X7071428Y20571428D01*
X7023809Y20666666D01*
X6976190Y20714285D01*
X6880952Y20761904D01*
X8452380Y15857142D02*
X7976190Y15523809D01*
X8452380Y15285714D02*
X7452380Y15285714D01*
X7452380Y15666666D01*
X7500000Y15761904D01*
X7547619Y15809523D01*
X7642857Y15857142D01*
X7785714Y15857142D01*
X7880952Y15809523D01*
X7928571Y15761904D01*
X7976190Y15666666D01*
X7976190Y15285714D01*
X7547619Y16238095D02*
X7500000Y16285714D01*
X7452380Y16380952D01*
X7452380Y16619047D01*
X7500000Y16714285D01*
X7547619Y16761904D01*
X7642857Y16809523D01*
X7738095Y16809523D01*
X7880952Y16761904D01*
X8452380Y16190476D01*
X8452380Y16809523D01*
X7452380Y17428571D02*
X7452380Y17523809D01*
X7500000Y17619047D01*
X7547619Y17666666D01*
X7642857Y17714285D01*
X7833333Y17761904D01*
X8071428Y17761904D01*
X8261904Y17714285D01*
X8357142Y17666666D01*
X8404761Y17619047D01*
X8452380Y17523809D01*
X8452380Y17428571D01*
X8404761Y17333333D01*
X8357142Y17285714D01*
X8261904Y17238095D01*
X8071428Y17190476D01*
X7833333Y17190476D01*
X7642857Y17238095D01*
X7547619Y17285714D01*
X7500000Y17333333D01*
X7452380Y17428571D01*
X9202380Y18857142D02*
X8726190Y18523809D01*
X9202380Y18285714D02*
X8202380Y18285714D01*
X8202380Y18666666D01*
X8250000Y18761904D01*
X8297619Y18809523D01*
X8392857Y18857142D01*
X8535714Y18857142D01*
X8630952Y18809523D01*
X8678571Y18761904D01*
X8726190Y18666666D01*
X8726190Y18285714D01*
X8297619Y19238095D02*
X8250000Y19285714D01*
X8202380Y19380952D01*
X8202380Y19619047D01*
X8250000Y19714285D01*
X8297619Y19761904D01*
X8392857Y19809523D01*
X8488095Y19809523D01*
X8630952Y19761904D01*
X9202380Y19190476D01*
X9202380Y19809523D01*
X9202380Y20761904D02*
X9202380Y20190476D01*
X9202380Y20476190D02*
X8202380Y20476190D01*
X8345238Y20380952D01*
X8440476Y20285714D01*
X8488095Y20190476D01*
X9952380Y15857142D02*
X9476190Y15523809D01*
X9952380Y15285714D02*
X8952380Y15285714D01*
X8952380Y15666666D01*
X9000000Y15761904D01*
X9047619Y15809523D01*
X9142857Y15857142D01*
X9285714Y15857142D01*
X9380952Y15809523D01*
X9428571Y15761904D01*
X9476190Y15666666D01*
X9476190Y15285714D01*
X9047619Y16238095D02*
X9000000Y16285714D01*
X8952380Y16380952D01*
X8952380Y16619047D01*
X9000000Y16714285D01*
X9047619Y16761904D01*
X9142857Y16809523D01*
X9238095Y16809523D01*
X9380952Y16761904D01*
X9952380Y16190476D01*
X9952380Y16809523D01*
X9047619Y17190476D02*
X9000000Y17238095D01*
X8952380Y17333333D01*
X8952380Y17571428D01*
X9000000Y17666666D01*
X9047619Y17714285D01*
X9142857Y17761904D01*
X9238095Y17761904D01*
X9380952Y17714285D01*
X9952380Y17142857D01*
X9952380Y17761904D01*
X12952380Y15857142D02*
X12476190Y15523809D01*
X12952380Y15285714D02*
X11952380Y15285714D01*
X11952380Y15666666D01*
X12000000Y15761904D01*
X12047619Y15809523D01*
X12142857Y15857142D01*
X12285714Y15857142D01*
X12380952Y15809523D01*
X12428571Y15761904D01*
X12476190Y15666666D01*
X12476190Y15285714D01*
X12285714Y16714285D02*
X12952380Y16714285D01*
X11904761Y16476190D02*
X12619047Y16238095D01*
X12619047Y16857142D01*
X12285714Y17666666D02*
X12952380Y17666666D01*
X11904761Y17428571D02*
X12619047Y17190476D01*
X12619047Y17809523D01*
X12452380Y11357142D02*
X11976190Y11023809D01*
X12452380Y10785714D02*
X11452380Y10785714D01*
X11452380Y11166666D01*
X11500000Y11261904D01*
X11547619Y11309523D01*
X11642857Y11357142D01*
X11785714Y11357142D01*
X11880952Y11309523D01*
X11928571Y11261904D01*
X11976190Y11166666D01*
X11976190Y10785714D01*
X11785714Y12214285D02*
X12452380Y12214285D01*
X11404761Y11976190D02*
X12119047Y11738095D01*
X12119047Y12357142D01*
X11452380Y13214285D02*
X11452380Y12738095D01*
X11928571Y12690476D01*
X11880952Y12738095D01*
X11833333Y12833333D01*
X11833333Y13071428D01*
X11880952Y13166666D01*
X11928571Y13214285D01*
X12023809Y13261904D01*
X12261904Y13261904D01*
X12357142Y13214285D01*
X12404761Y13166666D01*
X12452380Y13071428D01*
X12452380Y12833333D01*
X12404761Y12738095D01*
X12357142Y12690476D01*
X14952380Y15857142D02*
X14476190Y15523809D01*
X14952380Y15285714D02*
X13952380Y15285714D01*
X13952380Y15666666D01*
X14000000Y15761904D01*
X14047619Y15809523D01*
X14142857Y15857142D01*
X14285714Y15857142D01*
X14380952Y15809523D01*
X14428571Y15761904D01*
X14476190Y15666666D01*
X14476190Y15285714D01*
X14285714Y16714285D02*
X14952380Y16714285D01*
X13904761Y16476190D02*
X14619047Y16238095D01*
X14619047Y16857142D01*
X13952380Y17666666D02*
X13952380Y17476190D01*
X14000000Y17380952D01*
X14047619Y17333333D01*
X14190476Y17238095D01*
X14380952Y17190476D01*
X14761904Y17190476D01*
X14857142Y17238095D01*
X14904761Y17285714D01*
X14952380Y17380952D01*
X14952380Y17571428D01*
X14904761Y17666666D01*
X14857142Y17714285D01*
X14761904Y17761904D01*
X14523809Y17761904D01*
X14428571Y17714285D01*
X14380952Y17666666D01*
X14333333Y17571428D01*
X14333333Y17380952D01*
X14380952Y17285714D01*
X14428571Y17238095D01*
X14523809Y17190476D01*
X16702380Y15857142D02*
X16226190Y15523809D01*
X16702380Y15285714D02*
X15702380Y15285714D01*
X15702380Y15666666D01*
X15750000Y15761904D01*
X15797619Y15809523D01*
X15892857Y15857142D01*
X16035714Y15857142D01*
X16130952Y15809523D01*
X16178571Y15761904D01*
X16226190Y15666666D01*
X16226190Y15285714D01*
X16035714Y16714285D02*
X16702380Y16714285D01*
X15654761Y16476190D02*
X16369047Y16238095D01*
X16369047Y16857142D01*
X15702380Y17142857D02*
X15702380Y17809523D01*
X16702380Y17380952D01*
X15702380Y8357142D02*
X15226190Y8023809D01*
X15702380Y7785714D02*
X14702380Y7785714D01*
X14702380Y8166666D01*
X14750000Y8261904D01*
X14797619Y8309523D01*
X14892857Y8357142D01*
X15035714Y8357142D01*
X15130952Y8309523D01*
X15178571Y8261904D01*
X15226190Y8166666D01*
X15226190Y7785714D01*
X15035714Y9214285D02*
X15702380Y9214285D01*
X14654761Y8976190D02*
X15369047Y8738095D01*
X15369047Y9357142D01*
X15130952Y9880952D02*
X15083333Y9785714D01*
X15035714Y9738095D01*
X14940476Y9690476D01*
X14892857Y9690476D01*
X14797619Y9738095D01*
X14750000Y9785714D01*
X14702380Y9880952D01*
X14702380Y10071428D01*
X14750000Y10166666D01*
X14797619Y10214285D01*
X14892857Y10261904D01*
X14940476Y10261904D01*
X15035714Y10214285D01*
X15083333Y10166666D01*
X15130952Y10071428D01*
X15130952Y9880952D01*
X15178571Y9785714D01*
X15226190Y9738095D01*
X15321428Y9690476D01*
X15511904Y9690476D01*
X15607142Y9738095D01*
X15654761Y9785714D01*
X15702380Y9880952D01*
X15702380Y10071428D01*
X15654761Y10166666D01*
X15607142Y10214285D01*
X15511904Y10261904D01*
X15321428Y10261904D01*
X15226190Y10214285D01*
X15178571Y10166666D01*
X15130952Y10071428D01*
X20402380Y18907142D02*
X19926190Y18573809D01*
X20402380Y18335714D02*
X19402380Y18335714D01*
X19402380Y18716666D01*
X19450000Y18811904D01*
X19497619Y18859523D01*
X19592857Y18907142D01*
X19735714Y18907142D01*
X19830952Y18859523D01*
X19878571Y18811904D01*
X19926190Y18716666D01*
X19926190Y18335714D01*
X19735714Y19764285D02*
X20402380Y19764285D01*
X19354761Y19526190D02*
X20069047Y19288095D01*
X20069047Y19907142D01*
X20402380Y20335714D02*
X20402380Y20526190D01*
X20354761Y20621428D01*
X20307142Y20669047D01*
X20164285Y20764285D01*
X19973809Y20811904D01*
X19592857Y20811904D01*
X19497619Y20764285D01*
X19450000Y20716666D01*
X19402380Y20621428D01*
X19402380Y20430952D01*
X19450000Y20335714D01*
X19497619Y20288095D01*
X19592857Y20240476D01*
X19830952Y20240476D01*
X19926190Y20288095D01*
X19973809Y20335714D01*
X20021428Y20430952D01*
X20021428Y20621428D01*
X19973809Y20716666D01*
X19926190Y20764285D01*
X19830952Y20811904D01*
X20902380Y8357142D02*
X20426190Y8023809D01*
X20902380Y7785714D02*
X19902380Y7785714D01*
X19902380Y8166666D01*
X19950000Y8261904D01*
X19997619Y8309523D01*
X20092857Y8357142D01*
X20235714Y8357142D01*
X20330952Y8309523D01*
X20378571Y8261904D01*
X20426190Y8166666D01*
X20426190Y7785714D01*
X19902380Y9261904D02*
X19902380Y8785714D01*
X20378571Y8738095D01*
X20330952Y8785714D01*
X20283333Y8880952D01*
X20283333Y9119047D01*
X20330952Y9214285D01*
X20378571Y9261904D01*
X20473809Y9309523D01*
X20711904Y9309523D01*
X20807142Y9261904D01*
X20854761Y9214285D01*
X20902380Y9119047D01*
X20902380Y8880952D01*
X20854761Y8785714D01*
X20807142Y8738095D01*
X19902380Y9928571D02*
X19902380Y10023809D01*
X19950000Y10119047D01*
X19997619Y10166666D01*
X20092857Y10214285D01*
X20283333Y10261904D01*
X20521428Y10261904D01*
X20711904Y10214285D01*
X20807142Y10166666D01*
X20854761Y10119047D01*
X20902380Y10023809D01*
X20902380Y9928571D01*
X20854761Y9833333D01*
X20807142Y9785714D01*
X20711904Y9738095D01*
X20521428Y9690476D01*
X20283333Y9690476D01*
X20092857Y9738095D01*
X19997619Y9785714D01*
X19950000Y9833333D01*
X19902380Y9928571D01*
X19952380Y15857142D02*
X19476190Y15523809D01*
X19952380Y15285714D02*
X18952380Y15285714D01*
X18952380Y15666666D01*
X19000000Y15761904D01*
X19047619Y15809523D01*
X19142857Y15857142D01*
X19285714Y15857142D01*
X19380952Y15809523D01*
X19428571Y15761904D01*
X19476190Y15666666D01*
X19476190Y15285714D01*
X18952380Y16761904D02*
X18952380Y16285714D01*
X19428571Y16238095D01*
X19380952Y16285714D01*
X19333333Y16380952D01*
X19333333Y16619047D01*
X19380952Y16714285D01*
X19428571Y16761904D01*
X19523809Y16809523D01*
X19761904Y16809523D01*
X19857142Y16761904D01*
X19904761Y16714285D01*
X19952380Y16619047D01*
X19952380Y16380952D01*
X19904761Y16285714D01*
X19857142Y16238095D01*
X19952380Y17761904D02*
X19952380Y17190476D01*
X19952380Y17476190D02*
X18952380Y17476190D01*
X19095238Y17380952D01*
X19190476Y17285714D01*
X19238095Y17190476D01*
X21702380Y15857142D02*
X21226190Y15523809D01*
X21702380Y15285714D02*
X20702380Y15285714D01*
X20702380Y15666666D01*
X20750000Y15761904D01*
X20797619Y15809523D01*
X20892857Y15857142D01*
X21035714Y15857142D01*
X21130952Y15809523D01*
X21178571Y15761904D01*
X21226190Y15666666D01*
X21226190Y15285714D01*
X20702380Y16761904D02*
X20702380Y16285714D01*
X21178571Y16238095D01*
X21130952Y16285714D01*
X21083333Y16380952D01*
X21083333Y16619047D01*
X21130952Y16714285D01*
X21178571Y16761904D01*
X21273809Y16809523D01*
X21511904Y16809523D01*
X21607142Y16761904D01*
X21654761Y16714285D01*
X21702380Y16619047D01*
X21702380Y16380952D01*
X21654761Y16285714D01*
X21607142Y16238095D01*
X20797619Y17190476D02*
X20750000Y17238095D01*
X20702380Y17333333D01*
X20702380Y17571428D01*
X20750000Y17666666D01*
X20797619Y17714285D01*
X20892857Y17761904D01*
X20988095Y17761904D01*
X21130952Y17714285D01*
X21702380Y17142857D01*
X21702380Y17761904D01*
X23652380Y6357142D02*
X23176190Y6023809D01*
X23652380Y5785714D02*
X22652380Y5785714D01*
X22652380Y6166666D01*
X22700000Y6261904D01*
X22747619Y6309523D01*
X22842857Y6357142D01*
X22985714Y6357142D01*
X23080952Y6309523D01*
X23128571Y6261904D01*
X23176190Y6166666D01*
X23176190Y5785714D01*
X22652380Y7261904D02*
X22652380Y6785714D01*
X23128571Y6738095D01*
X23080952Y6785714D01*
X23033333Y6880952D01*
X23033333Y7119047D01*
X23080952Y7214285D01*
X23128571Y7261904D01*
X23223809Y7309523D01*
X23461904Y7309523D01*
X23557142Y7261904D01*
X23604761Y7214285D01*
X23652380Y7119047D01*
X23652380Y6880952D01*
X23604761Y6785714D01*
X23557142Y6738095D01*
X22652380Y7642857D02*
X22652380Y8261904D01*
X23033333Y7928571D01*
X23033333Y8071428D01*
X23080952Y8166666D01*
X23128571Y8214285D01*
X23223809Y8261904D01*
X23461904Y8261904D01*
X23557142Y8214285D01*
X23604761Y8166666D01*
X23652380Y8071428D01*
X23652380Y7785714D01*
X23604761Y7690476D01*
X23557142Y7642857D01*
X23702380Y19857142D02*
X23226190Y19523809D01*
X23702380Y19285714D02*
X22702380Y19285714D01*
X22702380Y19666666D01*
X22750000Y19761904D01*
X22797619Y19809523D01*
X22892857Y19857142D01*
X23035714Y19857142D01*
X23130952Y19809523D01*
X23178571Y19761904D01*
X23226190Y19666666D01*
X23226190Y19285714D01*
X22702380Y20761904D02*
X22702380Y20285714D01*
X23178571Y20238095D01*
X23130952Y20285714D01*
X23083333Y20380952D01*
X23083333Y20619047D01*
X23130952Y20714285D01*
X23178571Y20761904D01*
X23273809Y20809523D01*
X23511904Y20809523D01*
X23607142Y20761904D01*
X23654761Y20714285D01*
X23702380Y20619047D01*
X23702380Y20380952D01*
X23654761Y20285714D01*
X23607142Y20238095D01*
X23035714Y21666666D02*
X23702380Y21666666D01*
X22654761Y21428571D02*
X23369047Y21190476D01*
X23369047Y21809523D01*
X23702380Y23357142D02*
X23226190Y23023809D01*
X23702380Y22785714D02*
X22702380Y22785714D01*
X22702380Y23166666D01*
X22750000Y23261904D01*
X22797619Y23309523D01*
X22892857Y23357142D01*
X23035714Y23357142D01*
X23130952Y23309523D01*
X23178571Y23261904D01*
X23226190Y23166666D01*
X23226190Y22785714D01*
X22702380Y24261904D02*
X22702380Y23785714D01*
X23178571Y23738095D01*
X23130952Y23785714D01*
X23083333Y23880952D01*
X23083333Y24119047D01*
X23130952Y24214285D01*
X23178571Y24261904D01*
X23273809Y24309523D01*
X23511904Y24309523D01*
X23607142Y24261904D01*
X23654761Y24214285D01*
X23702380Y24119047D01*
X23702380Y23880952D01*
X23654761Y23785714D01*
X23607142Y23738095D01*
X22702380Y25214285D02*
X22702380Y24738095D01*
X23178571Y24690476D01*
X23130952Y24738095D01*
X23083333Y24833333D01*
X23083333Y25071428D01*
X23130952Y25166666D01*
X23178571Y25214285D01*
X23273809Y25261904D01*
X23511904Y25261904D01*
X23607142Y25214285D01*
X23654761Y25166666D01*
X23702380Y25071428D01*
X23702380Y24833333D01*
X23654761Y24738095D01*
X23607142Y24690476D01*
X25702380Y23357142D02*
X25226190Y23023809D01*
X25702380Y22785714D02*
X24702380Y22785714D01*
X24702380Y23166666D01*
X24750000Y23261904D01*
X24797619Y23309523D01*
X24892857Y23357142D01*
X25035714Y23357142D01*
X25130952Y23309523D01*
X25178571Y23261904D01*
X25226190Y23166666D01*
X25226190Y22785714D01*
X24702380Y24261904D02*
X24702380Y23785714D01*
X25178571Y23738095D01*
X25130952Y23785714D01*
X25083333Y23880952D01*
X25083333Y24119047D01*
X25130952Y24214285D01*
X25178571Y24261904D01*
X25273809Y24309523D01*
X25511904Y24309523D01*
X25607142Y24261904D01*
X25654761Y24214285D01*
X25702380Y24119047D01*
X25702380Y23880952D01*
X25654761Y23785714D01*
X25607142Y23738095D01*
X24702380Y25166666D02*
X24702380Y24976190D01*
X24750000Y24880952D01*
X24797619Y24833333D01*
X24940476Y24738095D01*
X25130952Y24690476D01*
X25511904Y24690476D01*
X25607142Y24738095D01*
X25654761Y24785714D01*
X25702380Y24880952D01*
X25702380Y25071428D01*
X25654761Y25166666D01*
X25607142Y25214285D01*
X25511904Y25261904D01*
X25273809Y25261904D01*
X25178571Y25214285D01*
X25130952Y25166666D01*
X25083333Y25071428D01*
X25083333Y24880952D01*
X25130952Y24785714D01*
X25178571Y24738095D01*
X25273809Y24690476D01*
X25702380Y19857142D02*
X25226190Y19523809D01*
X25702380Y19285714D02*
X24702380Y19285714D01*
X24702380Y19666666D01*
X24750000Y19761904D01*
X24797619Y19809523D01*
X24892857Y19857142D01*
X25035714Y19857142D01*
X25130952Y19809523D01*
X25178571Y19761904D01*
X25226190Y19666666D01*
X25226190Y19285714D01*
X24702380Y20761904D02*
X24702380Y20285714D01*
X25178571Y20238095D01*
X25130952Y20285714D01*
X25083333Y20380952D01*
X25083333Y20619047D01*
X25130952Y20714285D01*
X25178571Y20761904D01*
X25273809Y20809523D01*
X25511904Y20809523D01*
X25607142Y20761904D01*
X25654761Y20714285D01*
X25702380Y20619047D01*
X25702380Y20380952D01*
X25654761Y20285714D01*
X25607142Y20238095D01*
X24702380Y21142857D02*
X24702380Y21809523D01*
X25702380Y21380952D01*
X29080380Y8407142D02*
X28604190Y8073809D01*
X29080380Y7835714D02*
X28080380Y7835714D01*
X28080380Y8216666D01*
X28128000Y8311904D01*
X28175619Y8359523D01*
X28270857Y8407142D01*
X28413714Y8407142D01*
X28508952Y8359523D01*
X28556571Y8311904D01*
X28604190Y8216666D01*
X28604190Y7835714D01*
X28080380Y9311904D02*
X28080380Y8835714D01*
X28556571Y8788095D01*
X28508952Y8835714D01*
X28461333Y8930952D01*
X28461333Y9169047D01*
X28508952Y9264285D01*
X28556571Y9311904D01*
X28651809Y9359523D01*
X28889904Y9359523D01*
X28985142Y9311904D01*
X29032761Y9264285D01*
X29080380Y9169047D01*
X29080380Y8930952D01*
X29032761Y8835714D01*
X28985142Y8788095D01*
X28508952Y9930952D02*
X28461333Y9835714D01*
X28413714Y9788095D01*
X28318476Y9740476D01*
X28270857Y9740476D01*
X28175619Y9788095D01*
X28128000Y9835714D01*
X28080380Y9930952D01*
X28080380Y10121428D01*
X28128000Y10216666D01*
X28175619Y10264285D01*
X28270857Y10311904D01*
X28318476Y10311904D01*
X28413714Y10264285D01*
X28461333Y10216666D01*
X28508952Y10121428D01*
X28508952Y9930952D01*
X28556571Y9835714D01*
X28604190Y9788095D01*
X28699428Y9740476D01*
X28889904Y9740476D01*
X28985142Y9788095D01*
X29032761Y9835714D01*
X29080380Y9930952D01*
X29080380Y10121428D01*
X29032761Y10216666D01*
X28985142Y10264285D01*
X28889904Y10311904D01*
X28699428Y10311904D01*
X28604190Y10264285D01*
X28556571Y10216666D01*
X28508952Y10121428D01*
X27952380Y15607142D02*
X27476190Y15273809D01*
X27952380Y15035714D02*
X26952380Y15035714D01*
X26952380Y15416666D01*
X27000000Y15511904D01*
X27047619Y15559523D01*
X27142857Y15607142D01*
X27285714Y15607142D01*
X27380952Y15559523D01*
X27428571Y15511904D01*
X27476190Y15416666D01*
X27476190Y15035714D01*
X26952380Y16511904D02*
X26952380Y16035714D01*
X27428571Y15988095D01*
X27380952Y16035714D01*
X27333333Y16130952D01*
X27333333Y16369047D01*
X27380952Y16464285D01*
X27428571Y16511904D01*
X27523809Y16559523D01*
X27761904Y16559523D01*
X27857142Y16511904D01*
X27904761Y16464285D01*
X27952380Y16369047D01*
X27952380Y16130952D01*
X27904761Y16035714D01*
X27857142Y15988095D01*
X27952380Y17035714D02*
X27952380Y17226190D01*
X27904761Y17321428D01*
X27857142Y17369047D01*
X27714285Y17464285D01*
X27523809Y17511904D01*
X27142857Y17511904D01*
X27047619Y17464285D01*
X27000000Y17416666D01*
X26952380Y17321428D01*
X26952380Y17130952D01*
X27000000Y17035714D01*
X27047619Y16988095D01*
X27142857Y16940476D01*
X27380952Y16940476D01*
X27476190Y16988095D01*
X27523809Y17035714D01*
X27571428Y17130952D01*
X27571428Y17321428D01*
X27523809Y17416666D01*
X27476190Y17464285D01*
X27380952Y17511904D01*
X31152380Y12357142D02*
X30676190Y12023809D01*
X31152380Y11785714D02*
X30152380Y11785714D01*
X30152380Y12166666D01*
X30200000Y12261904D01*
X30247619Y12309523D01*
X30342857Y12357142D01*
X30485714Y12357142D01*
X30580952Y12309523D01*
X30628571Y12261904D01*
X30676190Y12166666D01*
X30676190Y11785714D01*
X30152380Y13214285D02*
X30152380Y13023809D01*
X30200000Y12928571D01*
X30247619Y12880952D01*
X30390476Y12785714D01*
X30580952Y12738095D01*
X30961904Y12738095D01*
X31057142Y12785714D01*
X31104761Y12833333D01*
X31152380Y12928571D01*
X31152380Y13119047D01*
X31104761Y13214285D01*
X31057142Y13261904D01*
X30961904Y13309523D01*
X30723809Y13309523D01*
X30628571Y13261904D01*
X30580952Y13214285D01*
X30533333Y13119047D01*
X30533333Y12928571D01*
X30580952Y12833333D01*
X30628571Y12785714D01*
X30723809Y12738095D01*
X30152380Y13928571D02*
X30152380Y14023809D01*
X30200000Y14119047D01*
X30247619Y14166666D01*
X30342857Y14214285D01*
X30533333Y14261904D01*
X30771428Y14261904D01*
X30961904Y14214285D01*
X31057142Y14166666D01*
X31104761Y14119047D01*
X31152380Y14023809D01*
X31152380Y13928571D01*
X31104761Y13833333D01*
X31057142Y13785714D01*
X30961904Y13738095D01*
X30771428Y13690476D01*
X30533333Y13690476D01*
X30342857Y13738095D01*
X30247619Y13785714D01*
X30200000Y13833333D01*
X30152380Y13928571D01*
X31902380Y8407142D02*
X31426190Y8073809D01*
X31902380Y7835714D02*
X30902380Y7835714D01*
X30902380Y8216666D01*
X30950000Y8311904D01*
X30997619Y8359523D01*
X31092857Y8407142D01*
X31235714Y8407142D01*
X31330952Y8359523D01*
X31378571Y8311904D01*
X31426190Y8216666D01*
X31426190Y7835714D01*
X30902380Y9264285D02*
X30902380Y9073809D01*
X30950000Y8978571D01*
X30997619Y8930952D01*
X31140476Y8835714D01*
X31330952Y8788095D01*
X31711904Y8788095D01*
X31807142Y8835714D01*
X31854761Y8883333D01*
X31902380Y8978571D01*
X31902380Y9169047D01*
X31854761Y9264285D01*
X31807142Y9311904D01*
X31711904Y9359523D01*
X31473809Y9359523D01*
X31378571Y9311904D01*
X31330952Y9264285D01*
X31283333Y9169047D01*
X31283333Y8978571D01*
X31330952Y8883333D01*
X31378571Y8835714D01*
X31473809Y8788095D01*
X31902380Y10311904D02*
X31902380Y9740476D01*
X31902380Y10026190D02*
X30902380Y10026190D01*
X31045238Y9930952D01*
X31140476Y9835714D01*
X31188095Y9740476D01*
X29702380Y18357142D02*
X29226190Y18023809D01*
X29702380Y17785714D02*
X28702380Y17785714D01*
X28702380Y18166666D01*
X28750000Y18261904D01*
X28797619Y18309523D01*
X28892857Y18357142D01*
X29035714Y18357142D01*
X29130952Y18309523D01*
X29178571Y18261904D01*
X29226190Y18166666D01*
X29226190Y17785714D01*
X28702380Y19214285D02*
X28702380Y19023809D01*
X28750000Y18928571D01*
X28797619Y18880952D01*
X28940476Y18785714D01*
X29130952Y18738095D01*
X29511904Y18738095D01*
X29607142Y18785714D01*
X29654761Y18833333D01*
X29702380Y18928571D01*
X29702380Y19119047D01*
X29654761Y19214285D01*
X29607142Y19261904D01*
X29511904Y19309523D01*
X29273809Y19309523D01*
X29178571Y19261904D01*
X29130952Y19214285D01*
X29083333Y19119047D01*
X29083333Y18928571D01*
X29130952Y18833333D01*
X29178571Y18785714D01*
X29273809Y18738095D01*
X28797619Y19690476D02*
X28750000Y19738095D01*
X28702380Y19833333D01*
X28702380Y20071428D01*
X28750000Y20166666D01*
X28797619Y20214285D01*
X28892857Y20261904D01*
X28988095Y20261904D01*
X29130952Y20214285D01*
X29702380Y19642857D01*
X29702380Y20261904D01*
X35202380Y18357142D02*
X34726190Y18023809D01*
X35202380Y17785714D02*
X34202380Y17785714D01*
X34202380Y18166666D01*
X34250000Y18261904D01*
X34297619Y18309523D01*
X34392857Y18357142D01*
X34535714Y18357142D01*
X34630952Y18309523D01*
X34678571Y18261904D01*
X34726190Y18166666D01*
X34726190Y17785714D01*
X34202380Y19214285D02*
X34202380Y19023809D01*
X34250000Y18928571D01*
X34297619Y18880952D01*
X34440476Y18785714D01*
X34630952Y18738095D01*
X35011904Y18738095D01*
X35107142Y18785714D01*
X35154761Y18833333D01*
X35202380Y18928571D01*
X35202380Y19119047D01*
X35154761Y19214285D01*
X35107142Y19261904D01*
X35011904Y19309523D01*
X34773809Y19309523D01*
X34678571Y19261904D01*
X34630952Y19214285D01*
X34583333Y19119047D01*
X34583333Y18928571D01*
X34630952Y18833333D01*
X34678571Y18785714D01*
X34773809Y18738095D01*
X34202380Y19642857D02*
X34202380Y20261904D01*
X34583333Y19928571D01*
X34583333Y20071428D01*
X34630952Y20166666D01*
X34678571Y20214285D01*
X34773809Y20261904D01*
X35011904Y20261904D01*
X35107142Y20214285D01*
X35154761Y20166666D01*
X35202380Y20071428D01*
X35202380Y19785714D01*
X35154761Y19690476D01*
X35107142Y19642857D01*
X34902380Y8357142D02*
X34426190Y8023809D01*
X34902380Y7785714D02*
X33902380Y7785714D01*
X33902380Y8166666D01*
X33950000Y8261904D01*
X33997619Y8309523D01*
X34092857Y8357142D01*
X34235714Y8357142D01*
X34330952Y8309523D01*
X34378571Y8261904D01*
X34426190Y8166666D01*
X34426190Y7785714D01*
X33902380Y9214285D02*
X33902380Y9023809D01*
X33950000Y8928571D01*
X33997619Y8880952D01*
X34140476Y8785714D01*
X34330952Y8738095D01*
X34711904Y8738095D01*
X34807142Y8785714D01*
X34854761Y8833333D01*
X34902380Y8928571D01*
X34902380Y9119047D01*
X34854761Y9214285D01*
X34807142Y9261904D01*
X34711904Y9309523D01*
X34473809Y9309523D01*
X34378571Y9261904D01*
X34330952Y9214285D01*
X34283333Y9119047D01*
X34283333Y8928571D01*
X34330952Y8833333D01*
X34378571Y8785714D01*
X34473809Y8738095D01*
X34235714Y10166666D02*
X34902380Y10166666D01*
X33854761Y9928571D02*
X34569047Y9690476D01*
X34569047Y10309523D01*
X13892250Y6130439D02*
X13434314Y6211251D01*
X13569001Y5807190D02*
X13003316Y6372876D01*
X13218815Y6588375D01*
X13299627Y6615312D01*
X13353502Y6615312D01*
X13434314Y6588375D01*
X13515126Y6507563D01*
X13542064Y6426751D01*
X13542064Y6372876D01*
X13515126Y6292064D01*
X13299627Y6076564D01*
X13515126Y6884687D02*
X13892250Y7261810D01*
X14215499Y6453688D01*
X14538748Y7531184D02*
X14915871Y7154061D01*
X14188561Y7611996D02*
X14457935Y7073248D01*
X14808122Y7423435D01*
X25202380Y6357142D02*
X24726190Y6023809D01*
X25202380Y5785714D02*
X24202380Y5785714D01*
X24202380Y6166666D01*
X24250000Y6261904D01*
X24297619Y6309523D01*
X24392857Y6357142D01*
X24535714Y6357142D01*
X24630952Y6309523D01*
X24678571Y6261904D01*
X24726190Y6166666D01*
X24726190Y5785714D01*
X24202380Y6690476D02*
X24202380Y7357142D01*
X25202380Y6928571D01*
X24630952Y7880952D02*
X24583333Y7785714D01*
X24535714Y7738095D01*
X24440476Y7690476D01*
X24392857Y7690476D01*
X24297619Y7738095D01*
X24250000Y7785714D01*
X24202380Y7880952D01*
X24202380Y8071428D01*
X24250000Y8166666D01*
X24297619Y8214285D01*
X24392857Y8261904D01*
X24440476Y8261904D01*
X24535714Y8214285D01*
X24583333Y8166666D01*
X24630952Y8071428D01*
X24630952Y7880952D01*
X24678571Y7785714D01*
X24726190Y7738095D01*
X24821428Y7690476D01*
X25011904Y7690476D01*
X25107142Y7738095D01*
X25154761Y7785714D01*
X25202380Y7880952D01*
X25202380Y8071428D01*
X25154761Y8166666D01*
X25107142Y8214285D01*
X25011904Y8261904D01*
X24821428Y8261904D01*
X24726190Y8214285D01*
X24678571Y8166666D01*
X24630952Y8071428D01*
X26452380Y6357142D02*
X25976190Y6023809D01*
X26452380Y5785714D02*
X25452380Y5785714D01*
X25452380Y6166666D01*
X25500000Y6261904D01*
X25547619Y6309523D01*
X25642857Y6357142D01*
X25785714Y6357142D01*
X25880952Y6309523D01*
X25928571Y6261904D01*
X25976190Y6166666D01*
X25976190Y5785714D01*
X25452380Y6690476D02*
X25452380Y7357142D01*
X26452380Y6928571D01*
X26452380Y7785714D02*
X26452380Y7976190D01*
X26404761Y8071428D01*
X26357142Y8119047D01*
X26214285Y8214285D01*
X26023809Y8261904D01*
X25642857Y8261904D01*
X25547619Y8214285D01*
X25500000Y8166666D01*
X25452380Y8071428D01*
X25452380Y7880952D01*
X25500000Y7785714D01*
X25547619Y7738095D01*
X25642857Y7690476D01*
X25880952Y7690476D01*
X25976190Y7738095D01*
X26023809Y7785714D01*
X26071428Y7880952D01*
X26071428Y8071428D01*
X26023809Y8166666D01*
X25976190Y8214285D01*
X25880952Y8261904D01*
X34952380Y11357142D02*
X34476190Y11023809D01*
X34952380Y10785714D02*
X33952380Y10785714D01*
X33952380Y11166666D01*
X34000000Y11261904D01*
X34047619Y11309523D01*
X34142857Y11357142D01*
X34285714Y11357142D01*
X34380952Y11309523D01*
X34428571Y11261904D01*
X34476190Y11166666D01*
X34476190Y10785714D01*
X34380952Y11928571D02*
X34333333Y11833333D01*
X34285714Y11785714D01*
X34190476Y11738095D01*
X34142857Y11738095D01*
X34047619Y11785714D01*
X34000000Y11833333D01*
X33952380Y11928571D01*
X33952380Y12119047D01*
X34000000Y12214285D01*
X34047619Y12261904D01*
X34142857Y12309523D01*
X34190476Y12309523D01*
X34285714Y12261904D01*
X34333333Y12214285D01*
X34380952Y12119047D01*
X34380952Y11928571D01*
X34428571Y11833333D01*
X34476190Y11785714D01*
X34571428Y11738095D01*
X34761904Y11738095D01*
X34857142Y11785714D01*
X34904761Y11833333D01*
X34952380Y11928571D01*
X34952380Y12119047D01*
X34904761Y12214285D01*
X34857142Y12261904D01*
X34761904Y12309523D01*
X34571428Y12309523D01*
X34476190Y12261904D01*
X34428571Y12214285D01*
X34380952Y12119047D01*
X34047619Y12690476D02*
X34000000Y12738095D01*
X33952380Y12833333D01*
X33952380Y13071428D01*
X34000000Y13166666D01*
X34047619Y13214285D01*
X34142857Y13261904D01*
X34238095Y13261904D01*
X34380952Y13214285D01*
X34952380Y12642857D01*
X34952380Y13261904D01*
X3988095Y25047619D02*
X3988095Y24238095D01*
X4035714Y24142857D01*
X4083333Y24095238D01*
X4178571Y24047619D01*
X4369047Y24047619D01*
X4464285Y24095238D01*
X4511904Y24142857D01*
X4559523Y24238095D01*
X4559523Y25047619D01*
X4988095Y24952380D02*
X5035714Y25000000D01*
X5130952Y25047619D01*
X5369047Y25047619D01*
X5464285Y25000000D01*
X5511904Y24952380D01*
X5559523Y24857142D01*
X5559523Y24761904D01*
X5511904Y24619047D01*
X4940476Y24047619D01*
X5559523Y24047619D01*
M02*
